<svg xmlns="http://www.w3.org/2000/svg" version="1.1" xmlns:xlink="http://www.w3.org/1999/xlink" xmlns:svgjs="http://svgjs.dev/svgjs" viewBox="0 0 800 800"><defs><linearGradient x1="50%" y1="0%" x2="50%" y2="100%" id="ffflurry-grad" gradientTransform="rotate(270)"><stop stop-color="hsl(238, 82%, 13%)" stop-opacity="1" offset="0%"></stop><stop stop-color="hsl(350, 91%, 49%)" stop-opacity="1" offset="45%"></stop><stop stop-color="#E6193B" stop-opacity="1" offset="100%"></stop></linearGradient></defs><rect width="100%" height="100%" fill="hsl(238, 82%, 13%)"></rect><g fill="url(#ffflurry-grad)"><rect width="445" height="3" x="-15.5" y="693.5" rx="1.5" transform="rotate(45, 207, 695)" opacity="0.20"></rect><rect width="27" height="3" x="673.5" y="13.5" rx="1.5" transform="rotate(45, 687, 15)" opacity="0.34"></rect><rect width="356" height="3" x="-57" y="649.5" rx="1.5" transform="rotate(45, 121, 651)" opacity="0.59"></rect><rect width="114" height="3" x="688" y="743.5" rx="1.5" transform="rotate(45, 745, 745)" opacity="0.60"></rect><rect width="158" height="3" x="498" y="251.5" rx="1.5" transform="rotate(45, 577, 253)" opacity="0.74"></rect><rect width="621" height="3" x="-244.5" y="390.5" rx="1.5" transform="rotate(45, 66, 392)" opacity="0.81"></rect><rect width="852" height="3" x="185" y="542.5" rx="1.5" transform="rotate(45, 611, 544)" opacity="0.77"></rect><rect width="509" height="3" x="-59.5" y="615.5" rx="1.5" transform="rotate(45, 195, 617)" opacity="0.41"></rect><rect width="140" height="3" x="333" y="457.5" rx="1.5" transform="rotate(45, 403, 459)" opacity="0.17"></rect><rect width="64" height="3" x="529" y="316.5" rx="1.5" transform="rotate(45, 561, 318)" opacity="0.57"></rect><rect width="405" height="3" x="561.5" y="292.5" rx="1.5" transform="rotate(45, 764, 294)" opacity="0.30"></rect><rect width="156" height="3" x="436" y="350.5" rx="1.5" transform="rotate(45, 514, 352)" opacity="0.17"></rect><rect width="620" height="3" x="-64" y="528.5" rx="1.5" transform="rotate(45, 246, 530)" opacity="0.75"></rect><rect width="504" height="3" x="-196" y="46.5" rx="1.5" transform="rotate(45, 56, 48)" opacity="0.36"></rect><rect width="266" height="3" x="494" y="421.5" rx="1.5" transform="rotate(45, 627, 423)" opacity="0.21"></rect><rect width="383" height="3" x="-123.5" y="174.5" rx="1.5" transform="rotate(45, 68, 176)" opacity="0.57"></rect><rect width="343" height="3" x="361.5" y="436.5" rx="1.5" transform="rotate(45, 533, 438)" opacity="0.45"></rect><rect width="311" height="3" x="256.5" y="318.5" rx="1.5" transform="rotate(45, 412, 320)" opacity="0.97"></rect><rect width="461" height="3" x="386.5" y="307.5" rx="1.5" transform="rotate(45, 617, 309)" opacity="0.90"></rect><rect width="409" height="3" x="553.5" y="223.5" rx="1.5" transform="rotate(45, 758, 225)" opacity="0.75"></rect><rect width="446" height="3" x="387" y="80.5" rx="1.5" transform="rotate(45, 610, 82)" opacity="0.58"></rect><rect width="428" height="3" x="417" y="216.5" rx="1.5" transform="rotate(45, 631, 218)" opacity="0.36"></rect><rect width="616" height="3" x="446" y="384.5" rx="1.5" transform="rotate(45, 754, 386)" opacity="0.23"></rect><rect width="245" height="3" x="524.5" y="20.5" rx="1.5" transform="rotate(45, 647, 22)" opacity="0.29"></rect><rect width="173" height="3" x="321.5" y="228.5" rx="1.5" transform="rotate(45, 408, 230)" opacity="0.75"></rect><rect width="737" height="3" x="42.5" y="587.5" rx="1.5" transform="rotate(45, 411, 589)" opacity="0.67"></rect><rect width="246" height="3" x="429" y="192.5" rx="1.5" transform="rotate(45, 552, 194)" opacity="0.41"></rect><rect width="216" height="3" x="37" y="323.5" rx="1.5" transform="rotate(45, 145, 325)" opacity="0.85"></rect><rect width="50" height="3" x="558" y="25.5" rx="1.5" transform="rotate(45, 583, 27)" opacity="0.74"></rect><rect width="643" height="3" x="-14.5" y="395.5" rx="1.5" transform="rotate(45, 307, 397)" opacity="0.28"></rect><rect width="141" height="3" x="161.5" y="761.5" rx="1.5" transform="rotate(45, 232, 763)" opacity="0.12"></rect><rect width="450" height="3" x="483" y="104.5" rx="1.5" transform="rotate(45, 708, 106)" opacity="0.46"></rect><rect width="153" height="3" x="56.5" y="752.5" rx="1.5" transform="rotate(45, 133, 754)" opacity="0.60"></rect><rect width="276" height="3" x="-94" y="634.5" rx="1.5" transform="rotate(45, 44, 636)" opacity="0.30"></rect><rect width="639" height="3" x="10.5" y="510.5" rx="1.5" transform="rotate(45, 330, 512)" opacity="0.75"></rect><rect width="131" height="3" x="632.5" y="190.5" rx="1.5" transform="rotate(45, 698, 192)" opacity="0.50"></rect><rect width="565" height="3" x="-100.5" y="244.5" rx="1.5" transform="rotate(45, 182, 246)" opacity="0.99"></rect><rect width="500" height="3" x="79" y="739.5" rx="1.5" transform="rotate(45, 329, 741)" opacity="0.54"></rect><rect width="220" height="3" x="64" y="35.5" rx="1.5" transform="rotate(45, 174, 37)" opacity="0.50"></rect><rect width="238" height="3" x="632" y="56.5" rx="1.5" transform="rotate(45, 751, 58)" opacity="0.65"></rect><rect width="436" height="3" x="-167" y="506.5" rx="1.5" transform="rotate(45, 51, 508)" opacity="0.44"></rect><rect width="366" height="3" x="179" y="63.5" rx="1.5" transform="rotate(45, 362, 65)" opacity="0.65"></rect><rect width="553" height="3" x="217.5" y="265.5" rx="1.5" transform="rotate(45, 494, 267)" opacity="0.37"></rect><rect width="346" height="3" x="101" y="46.5" rx="1.5" transform="rotate(45, 274, 48)" opacity="0.53"></rect><rect width="42" height="3" x="6" y="139.5" rx="1.5" transform="rotate(45, 27, 141)" opacity="0.57"></rect><rect width="160" height="3" x="646" y="18.5" rx="1.5" transform="rotate(45, 726, 20)" opacity="0.92"></rect><rect width="246" height="3" x="554" y="58.5" rx="1.5" transform="rotate(45, 677, 60)" opacity="0.51"></rect><rect width="90" height="3" x="448" y="524.5" rx="1.5" transform="rotate(45, 493, 526)" opacity="0.81"></rect><rect width="390" height="3" x="-24" y="167.5" rx="1.5" transform="rotate(45, 171, 169)" opacity="0.81"></rect><rect width="556" height="3" x="160" y="113.5" rx="1.5" transform="rotate(45, 438, 115)" opacity="0.88"></rect><rect width="147" height="3" x="-39.5" y="297.5" rx="1.5" transform="rotate(45, 34, 299)" opacity="0.56"></rect><rect width="126" height="3" x="404" y="761.5" rx="1.5" transform="rotate(45, 467, 763)" opacity="0.12"></rect><rect width="563" height="3" x="-47.5" y="333.5" rx="1.5" transform="rotate(45, 234, 335)" opacity="0.93"></rect><rect width="831" height="3" x="306.5" y="628.5" rx="1.5" transform="rotate(45, 722, 630)" opacity="0.14"></rect><rect width="357" height="3" x="259.5" y="387.5" rx="1.5" transform="rotate(45, 438, 389)" opacity="0.11"></rect><rect width="274" height="3" x="11" y="101.5" rx="1.5" transform="rotate(45, 148, 103)" opacity="0.71"></rect><rect width="370" height="3" x="-38" y="527.5" rx="1.5" transform="rotate(45, 147, 529)" opacity="0.74"></rect><rect width="51" height="3" x="405.5" y="682.5" rx="1.5" transform="rotate(45, 431, 684)" opacity="0.85"></rect><rect width="699" height="3" x="385.5" y="500.5" rx="1.5" transform="rotate(45, 735, 502)" opacity="0.36"></rect><rect width="266" height="3" x="337" y="188.5" rx="1.5" transform="rotate(45, 470, 190)" opacity="0.72"></rect><rect width="469" height="3" x="401.5" y="145.5" rx="1.5" transform="rotate(45, 636, 147)" opacity="0.67"></rect><rect width="413" height="3" x="137.5" y="285.5" rx="1.5" transform="rotate(45, 344, 287)" opacity="0.33"></rect><rect width="397" height="3" x="283.5" y="35.5" rx="1.5" transform="rotate(45, 482, 37)" opacity="0.72"></rect><rect width="139" height="3" x="714.5" y="41.5" rx="1.5" transform="rotate(45, 784, 43)" opacity="0.86"></rect><rect width="103" height="3" x="631.5" y="276.5" rx="1.5" transform="rotate(45, 683, 278)" opacity="0.35"></rect><rect width="447" height="3" x="-178.5" y="747.5" rx="1.5" transform="rotate(45, 45, 749)" opacity="0.89"></rect><rect width="580" height="3" x="328" y="739.5" rx="1.5" transform="rotate(45, 618, 741)" opacity="0.87"></rect><rect width="532" height="3" x="-176" y="238.5" rx="1.5" transform="rotate(45, 90, 240)" opacity="0.60"></rect><rect width="408" height="3" x="137" y="176.5" rx="1.5" transform="rotate(45, 341, 178)" opacity="0.82"></rect><rect width="222" height="3" x="164" y="261.5" rx="1.5" transform="rotate(45, 275, 263)" opacity="0.61"></rect><rect width="225" height="3" x="143.5" y="156.5" rx="1.5" transform="rotate(45, 256, 158)" opacity="0.18"></rect><rect width="532" height="3" x="283" y="647.5" rx="1.5" transform="rotate(45, 549, 649)" opacity="0.25"></rect><rect width="357" height="3" x="362.5" y="115.5" rx="1.5" transform="rotate(45, 541, 117)" opacity="0.43"></rect><rect width="236" height="3" x="185" y="631.5" rx="1.5" transform="rotate(45, 303, 633)" opacity="0.91"></rect><rect width="313" height="3" x="519.5" y="357.5" rx="1.5" transform="rotate(45, 676, 359)" opacity="0.30"></rect><rect width="457" height="3" x="-43.5" y="427.5" rx="1.5" transform="rotate(45, 185, 429)" opacity="0.85"></rect><rect width="248" height="3" x="641" y="142.5" rx="1.5" transform="rotate(45, 765, 144)" opacity="0.87"></rect></g></svg>