<svg xmlns="http://www.w3.org/2000/svg" version="1.1" xmlns:xlink="http://www.w3.org/1999/xlink" xmlns:svgjs="http://svgjs.dev/svgjs" viewBox="0 0 800 800"><defs><linearGradient x1="50%" y1="0%" x2="50%" y2="100%" id="wwwhirl-grad"><stop stop-color="#E6193B" stop-opacity="1" offset="45%"></stop><stop stop-color="hsl(180, 69%, 60%)" stop-opacity="1" offset="100%"></stop></linearGradient></defs><g stroke-width="2" stroke="url(#wwwhirl-grad)" fill="none" stroke-linecap="round"><path d="M37.00000251770027 473.0490592077206C50.75000289917 426.84905792598227 75.50000358581553 262.8390533758112 103.000004348755 251.28905305537666C130.50000511169446 239.73905273494208 141.5000054168703 407.29655738353233 169.00000617980973 417.6090576696346C196.5000069427492 427.92155795573694 207.50000724792503 273.3578036676356 235.00000801086446 300.7890544286677C262.500008773804 328.22030518969984 273.5000090789798 548.4540612997006 301.0000098419193 549.2790613225889C328.50001060485874 550.104061345477 339.5000109100345 329.7053052308986 367.000011672974 304.749054538531C394.50001243591345 279.7928038461634 405.5000127410893 430.93280803927877 433.0000135040287 429.4890579992244C460.5000142669682 428.04530795917015 471.50001457214404 296.9940543233821 499.0000153350834 297.81905434627026C526.5000160980228 298.6440543691584 537.5000164031987 433.03655809764365 565.0000171661382 433.4490581090878C592.5000179290777 433.8615581205318 603.5000182342535 300.0053044069239 631.000018997193 299.7990544012019C658.5000197601325 299.59280439547985 669.5000200653083 433.2840581045101 697.0000208282477 432.45905808162195C724.5000215911871 431.63405805873373 749.2500222778326 324.30155508098096 763.0000226593024 295.8390542913386 " transform="rotate(99, 400, 400)"></path><path d="M48.00000244140632 470.8354393308649C61.33333614464971 426.0354380879671 85.3333368104878 266.99543367568015 112.00000421697456 255.79543336495567C138.6666716234613 244.59543305423125 149.33333858605602 407.0754375619551 176.00000599254278 417.07543783938763C202.66667339902952 427.0754381168202 213.33334036162427 277.1954339586613 240.000007768111 303.79543469663184C266.6666751745978 330.3954354346024 277.3333421371925 543.9554413594516 304.00000954367925 544.7554413816463C330.66667695016605 545.5554414038409 341.3333439127607 331.8354354745527 368.00001131924745 307.63543480316594C394.66667872573424 283.4354341317792 405.33334568832896 429.9954381978305 432.00001309481576 428.5954381589899C458.66668050130244 427.19543812014933 469.3333474638972 300.1154345945367 496.0000148703839 300.9154346167313C522.6666822768707 301.7154346389259 533.3333492394653 432.0354382544267 560.0000166459522 432.435438265524C586.666684052439 432.8354382766213 597.3333510150337 303.035434675547 624.0000184215204 302.83543466999834C650.6666858280073 302.6354346644497 661.3333527906019 432.27543826108507 688.0000201970887 431.47543823889043C714.6666876035754 430.67543821669585 738.6666882694134 326.59543532917803 752.0000219726569 298.99543456346424 " transform="rotate(96, 400, 400)"></path><path d="M59.00000236511238 468.6218347127984C71.9166693901294 425.22183350874116 95.16667003516005 271.15182923433804 121.00000408519412 260.30182893332375C146.83333813522813 249.45182863230946 157.1666717552418 406.85433299916696 183.0000058052758 416.54183326792975C208.83333985530987 426.2293335366925 219.1666734753235 281.0330795084761 245.00000752535757 306.8018302233851C270.8333415753916 332.57058093829403 281.1666751954052 539.4568366779918 307.0000092454393 540.2318366994928C332.83334329547336 541.0068367209938 343.16667691548696 333.96558097699585 369.00001096552097 310.52183032658996C394.83334501555504 287.0780796761841 405.1666786355687 429.0580836151712 431.0000126856027 427.70183357754445C456.8333467356368 426.34558353991764 467.16668035565044 303.2368301244803 493.0000144056845 304.0118301459814C518.8333484557185 304.7868301674824 529.1666820757321 431.03433366999883 555.0000161257661 431.42183368074933C580.8333501758003 431.80933369149983 591.1666837958139 306.0655802029591 617.000017845848 305.87183019758385C642.8333518958821 305.6780801922086 653.1666855158957 431.2668336764491 679.0000195659296 430.4918336549481C704.8333536159636 429.7168336334471 728.0833542609943 328.88933083616416 741.0000212860114 302.15183009437897 " transform="rotate(93, 400, 400)"></path><path d="M70.00000228881842 466.4082300947318C82.50000263560909 424.4082289295151 105.00000325983231 275.30822479299604 130.00000395341365 264.8082245016918C155.00000464699497 254.3082242103877 165.00000492442751 406.6332284363788 190.00000561800886 416.00822869647175C215.0000063115902 425.38322895656484 225.00000658902275 284.8707250582909 250.00000728260406 309.80822575013826C275.00000797618543 334.74572644198565 285.000008253618 534.9582319965318 310.0000089471993 535.7082320173392C335.00000964078066 536.4582320381467 345.00000991821315 336.095726479439 370.0000106117945 313.408225850014C395.00001130537584 290.72072522058886 405.0000115828084 428.1207290325119 430.0000122763897 426.80822899609893C455.000012969971 425.49572895968595 465.0000132474036 306.358225654424 490.00001394098496 307.10822567523144C515.0000146345662 307.8582256960389 525.0000149119987 430.03322908557095 550.0000156055801 430.40822909597466C575.0000162991615 430.78322910637837 585.000016576594 309.0957257303712 610.0000172701755 308.90822572516936C635.0000179637568 308.7207257199675 645.0000182411893 430.2582290918132 670.0000189347705 429.50822907100576C695.0000196283519 428.7582290501982 717.5000202525752 331.1832263431503 730.0000205993658 305.30822562529363 " transform="rotate(90, 400, 400)"></path><path d="M81.00000221252448 464.19462547666524C93.08333588108879 423.5946243502891 114.83333648450457 279.46462035165393 139.0000038216332 269.31462007005996C163.1666711587618 259.16461978846587 172.83333809361326 406.41212387359064 197.0000054307419 415.47462412501386C221.16667276787052 424.5371243764372 230.833339702722 288.7083706081056 255.00000703985063 312.81462127689144C279.16667437697924 336.9208719456773 288.83334131183074 530.4596273150719 313.00000864895935 531.1846273351857C337.16667598608797 531.9096273552996 346.8333429209394 338.2258719818822 371.000010258068 316.29462137343796C395.16667759519663 294.36337076499376 404.8333445300481 427.18337444985275 429.00001186717674 425.9146244146535C453.16667920430535 424.6458743794542 462.8333461391569 309.4796211843677 487.00001347628546 310.20462120448155C511.1666808134141 310.9296212245954 520.8333477482655 429.0321245011431 545.0000150853941 429.3946245112C569.1666824225229 429.75712452125686 578.8333493573742 312.1258712577833 603.000016694503 311.9446212527548C627.1666840316316 311.76337124772635 636.8333509664831 429.24962450717726 661.0000183036116 428.52462448706336C685.1666856407402 427.79962446694947 706.9166862441559 333.4771218501364 719.0000199127203 308.4646211562083 " transform="rotate(87, 400, 400)"></path><path d="M92.00000213623053 461.9810132292041C103.6666691265685 422.7810121416685 124.66666970917683 283.6210082809174 148.00000368985275 273.82100800903345C171.33333767052864 264.0210077371496 180.666671262799 406.191011681408 204.00000524347493 414.94101192416144C227.33333922415085 423.6910121669149 236.66667281642125 292.54600852852593 260.00000679709717 315.8210091742501C283.33334077777306 339.09600981997437 292.66667437004344 525.9610150042174 316.0000083507193 526.6610150236377C339.3333423313953 527.361015043058 348.66667592366565 340.35600985493085 372.00000990434154 319.18100926746746C395.3333438850174 298.0060086800041 404.6666774772878 426.24601223779894 428.00001145796375 425.0210122038134C451.3333454386397 423.7960121698279 460.6666790309101 312.6010090849169 484.000013011586 313.30100910433714C507.33334699226185 314.0010091237574 516.6666805845323 428.03101228732066 540.0000145652082 428.3810122970308C563.3333485458841 428.7310123067409 572.6666821381544 315.15600915580086 596.0000161188304 314.9810091509458C619.3333500995063 314.80600914609073 628.6666836917767 428.2410122931467 652.0000176724526 427.54101227372644C675.3333516531285 426.8410122543062 696.3333522357368 335.771009727728 708.0000192260748 311.62100905772843 " transform="rotate(84, 400, 400)"></path><path d="M103.00000205993659 459.76741624053204C114.25000237204819 421.96741519183706 134.5000029338491 287.77741146896983 157.00000355807228 278.3274112067961C179.50000418229547 268.8774109446224 188.5000044319848 405.9699147480144 211.00000505620795 414.4074149820981C233.50000568043117 422.8449152161818 242.50000593012047 296.3836617077352 265.0000065543437 318.82741233039786C287.5000071785669 341.2711629530605 296.5000074282562 521.462417952152 319.0000080524794 522.1374179708788C341.5000086767026 522.8124179896055 350.50000892639184 342.4861629867686 373.00000955061506 322.067412420286C395.5000101748383 301.64866185380345 404.5000104245276 425.3086652845342 427.00001104875076 424.1274152517625C449.500011672974 422.94616521899076 458.5000119226633 315.72241224425505 481.00001254688647 316.3974122629818C503.50001317110963 317.07241228170847 512.5000134207988 427.02991533228726 535.0000140450221 427.3674153416506C557.5000146692455 427.70491535101394 566.5000149189347 318.1861623126075 589.0000155431579 318.01741230792584C611.5000161673811 317.84866230324417 620.5000164170704 427.2324153379053 643.0000170412935 426.5574153191786C665.5000176655168 425.88241530045184 685.7500182273176 338.0649128641087 697.0000185394292 314.7774122180377 " transform="rotate(81, 400, 400)"></path><path d="M114.00000198364263 457.5538039930709C124.83333561752788 421.15380298321645 144.33333615852135 291.93379939823325 166.0000034262918 282.83379914576966C187.6666706940623 273.733798893306 196.3333376011705 405.7488025558317 218.000004868941 413.8738027812456C239.6666721367115 421.99880300665956 248.3333390438197 300.22129962815546 270.0000063115902 321.83380022775657C291.6666735793607 343.4463008273576 300.33334048646896 516.9638056412975 322.0000077542394 517.6138056593308C343.6666750220099 518.2638056773638 352.3333419291181 344.6163008598172 374.0000091968886 324.95380031431546C395.6666764646591 305.29129976881376 404.3333433717673 424.3713030724804 426.0000106395378 423.23380304092245C447.66667790730827 422.09630300936453 456.3333448144165 318.8438001448042 478.00001208218697 319.4938001628373C499.66667934995746 320.14380018087047 508.33334625706556 426.02880311846485 530.0000135248362 426.3538031274814C551.6666807926067 426.678803136498 560.3333476997147 321.2163002106251 582.0000149674854 321.0538002061168C603.6666822352558 320.89130020160854 612.3333491423641 426.2238031238748 634.0000164101345 425.57380310584165C655.666683677905 424.92380308780855 675.1666842188985 340.3588007417003 686.0000178527837 317.9338001195579 " transform="rotate(78, 400, 400)"></path><path d="M125.00000190734869 455.34018411621526C135.41666886300757 420.3401831452014 154.1666693831936 296.09017969810213 175.00000329451137 287.3401794553487C195.83333720582914 278.5901792125952 204.16667077035626 405.5276827342545 225.00000468167406 413.3401829509986C245.83333859299182 421.1526831677428 254.16667215751897 304.0589299191812 275.00000606883674 324.8401804957207C295.8333399801545 345.6214310722602 304.16667354468166 512.4651857010485 325.0000074559994 513.0901857183882C345.8333413673172 513.7151857357278 354.16667493184434 346.7464311034713 375.00000884316205 327.8401805789504C395.8333427544799 308.93393005442954 404.166676319007 423.43393323103214 425.0000102303248 422.3401832006879C445.83334414164256 421.2464331703437 454.1666777061697 321.9651804159588 475.0000116174875 322.59018043329837C495.83334552880524 323.2151804506379 504.1666790933323 425.0276832752479 525.0000130046501 425.34018328391767C545.8333469159679 425.6526832925874 554.166680480495 324.24643047924815 575.0000143918128 324.09018047491327C595.8333483031306 323.9339304705784 604.1666818676579 425.21518328044976 625.0000157789755 424.59018326311025C645.8333496902933 423.96518324577073 664.5833502104794 342.65268098989736 675.0000171661382 321.0901803916835 " transform="rotate(75, 400, 400)"></path><path d="M136.00000183105476 453.1265871275432C146.00000210848728 419.5265861953699 164.00000260786584 300.2465828861546 184.00000316273093 291.8465826531113C204.00000371759597 283.44658242006795 212.000003939542 405.30658580086083 232.00000449440708 412.80658600893526C252.00000504927215 420.3065862170097 260.0000052712182 307.89658309839047 280.0000058260833 327.8465836518684C300.0000063809483 347.79658420534633 308.00000660289436 507.96658864898325 328.00000715775946 508.5665886656292C348.00000771262455 509.1665886822752 356.00000793457053 348.87658423530905 376.0000084894356 330.726583731769C396.00000904430067 312.5765832282289 404.0000092662467 422.4965862777674 424.0000098211118 421.446586248637C444.0000103759769 420.3965862195065 452.0000105979229 325.086583575297 472.000011152788 325.68658359194296C492.000011707653 326.28658360858896 500.00001192959905 424.02658632021456 520.0000124844642 424.32658632853753C540.0000130393292 424.6265863368605 548.0000132612753 327.27658363605474 568.0000138161404 327.12658363189325C588.0000143710055 326.97658362773177 596.0000145929514 424.2065863252084 616.0000151478165 423.6065863085624C636.0000157026815 423.00658629191645 654.00001620206 344.946584126278 664.0000164794926 324.24658355199267 " transform="rotate(72, 400, 400)"></path><path d="M146.9999864959717 450.9129748800822C156.5833200951779 418.7129739867494 173.83332057374906 304.40297081541803 192.9999877721614 296.35297059208483C212.16665497057375 288.30297036875163 219.8333218499387 405.08547360867817 238.99998904835104 412.2729738080828C258.1666562467634 419.46047400748745 265.8333231261284 311.7342210188108 284.9999903245407 330.8529715492271C304.1666575229531 349.9717220796434 311.83332440231806 503.4679763381288 330.9999916007304 504.0429763540812C350.1666587991428 504.6179763700336 357.83332567850766 351.00672210835774 376.99999287692003 333.6129716257985C396.1666600753324 316.2192211432392 403.8333269546974 421.5592240657136 422.99999415310975 420.55297403779696C442.1666613515221 419.5467240098803 449.83332823088705 328.2079714758462 468.9999954292994 328.78297149179855C488.16666262771173 329.3579715077509 495.83332950707666 423.02547410639215 514.9999967054891 423.31297411436833C534.1666639039015 423.6004741223445 541.8333307832664 330.3067215340723 560.9999979816788 330.16297153008423C580.1666651800912 330.01922152609615 587.8333320594561 423.19797411117787 606.9999992578685 422.62297409522546C626.1666664562807 422.0479740792731 643.4166669348518 347.2404720038696 653.000000534058 327.40297145351286 " transform="rotate(69, 400, 400)"></path><path d="M157.99998641967778 448.6993778914101C167.1666533406576 417.8993770369178 183.6666537984213 308.5593740034705 201.99998764038094 300.8593737898475C220.33332148234058 293.1593735762244 227.66665501912445 404.8643766752846 245.9999888610841 411.7393768660194C264.33332270304373 418.6143770567543 271.6666562398276 315.57187419802005 289.99999008178725 333.8593747053748C308.3333239237469 352.1468752127296 315.6666574605308 498.96937928606343 333.99999130249046 499.51937930132226C352.3333251444501 500.06937931658103 359.6666586812339 353.1368752401954 377.99999252319355 336.49937477861704C396.3333263651532 319.86187431703866 403.6666599019371 420.6218771124489 421.99999374389677 419.659377085746C440.3333275858564 418.6968770590431 447.6666611226403 331.3293746351844 465.9999949645999 331.8793746504432C484.3333288065595 332.42937466570197 491.6666623433434 422.0243771513588 509.9999961853031 422.2993771589882C528.3333300272627 422.5743771666176 535.6666635640465 333.336874690879 553.9999974060063 333.1993746870643C572.3333312479659 333.0618746832496 579.6666647847499 422.1893771559364 597.9999986267094 421.63937714067765C616.3333324686689 421.0893771254188 632.8333329264326 349.53437514025035 641.9999998474125 330.5593746138221 " transform="rotate(66, 400, 400)"></path><path d="M168.99998634338385 446.485765643949C177.7499865861373 417.08576482829733 193.49998702309355 312.7157619327339 210.9999875086005 305.365761728821C228.4999879941074 298.0157615249081 235.49998818831023 404.64326448310186 252.99998867381714 411.20576466516695C270.49998915932406 417.7682648472321 277.49998935352687 319.4095121184403 294.9999898390338 336.8657626027335C312.4999903245407 354.3220130870267 319.4999905187435 494.47076697520896 336.99999100425043 494.9957669897742C354.49999148975735 495.5207670043394 361.49999168396016 355.26701311324405 378.9999921694671 339.3857626726465C396.49999265497405 323.5045122320489 403.4999928491768 419.68451490039513 420.9999933346837 418.765764874906C438.4999938201907 417.84701484941684 445.4999940143935 334.45076253573353 462.9999944999004 334.9757625502988C480.4999949854073 335.500762564864 487.4999951796101 421.0232649375364 504.99999566511707 421.285764944819C522.4999961506239 421.5482649521016 529.4999963448267 336.36701258889656 546.9999968303338 336.23576258525526C564.4999973158407 336.10451258161396 571.4999975100434 421.180764941906 588.9999979955503 420.6557649273407C606.4999984810572 420.13076491277553 622.2499989180135 351.82826301784195 630.999999160767 333.71576251534225 " transform="rotate(63, 400, 400)"></path><path d="M179.9999862670899 444.2721610258824C188.33331983161702 416.27216024907125 203.3333202477658 316.8721574913919 219.99998737682003 309.8721572971891C236.66665450587425 302.8721571029863 243.33332135749595 404.42215992031373 259.9999884865502 410.67216009370907C276.6666556156044 416.9221602671044 283.33332246722614 323.2471576682551 299.99998959628033 339.8721581294867C316.6666567253345 356.4971585907183 323.3333235769563 489.9721622937491 339.9999907060105 490.4721623076207C356.6666578350647 490.97216232149236 363.3333246866864 357.3971586156872 379.9999918157406 342.2721581960705C396.6666589447948 327.1471577764538 403.33332579641655 418.74716031773585 419.9999929254708 417.8721602934605C436.666660054525 416.99716026918514 443.3333269061467 337.57215806567723 459.9999940352009 338.07215807954884C476.6666611642551 338.57215809342046 483.33332801587676 420.0221603531085 499.99999514493106 420.27216036004427C516.6666622739854 420.5221603669801 523.333329125607 339.3971581163087 539.9999962546613 339.27215811284077C556.6666633837156 339.14715810937287 563.3333302353371 420.17216035727 579.9999973643913 419.67216034339833C596.6666644934455 419.1721603295267 611.6666649095944 354.1221585248281 619.9999984741214 336.8721580462569 " transform="rotate(60, 400, 400)"></path><path d="M190.99998619079594 442.0585411490267C198.9166530770967 415.4585404110562 213.16665347243807 321.02853779126076 228.99998724503956 314.3785376067681C244.83332101764108 307.7285374222755 251.1666545266817 404.20104009873654 266.99998829928325 410.1385402634621C282.8333220718847 416.07604042818764 289.16665558092535 327.08478795928085 304.99998935352687 342.8785383974508C320.83332312612833 358.67228883562086 327.166656635169 485.4735423535001 342.9999904077705 485.9485423666781C358.833324180372 486.42354237985626 365.1666576894126 359.52728885934135 380.9999914620141 345.1585384607055C396.8333252346156 330.7897880620696 403.1666587436563 417.8097904762875 418.99999251625775 416.97854045322595C434.83332628885927 416.1472904301644 441.1666597978999 340.6935383368318 456.99999357050143 341.1685383500099C472.8333273431029 341.64353836318793 479.1666608521435 419.0210405098916 494.99999462474506 419.2585405164806C510.8333283973466 419.4960405230696 517.1666619063872 342.42728838493167 532.9999956789886 342.30853838163716C548.8333294515903 342.18978837834266 555.1666629606309 419.16354051384496 570.9999967332324 418.68854050066693C586.8333305058338 418.21354048748884 601.0833309011753 356.41603877302515 608.9999977874759 340.0285383183826 " transform="rotate(57, 400, 400)"></path><path d="M201.999986114502 439.8449365309602C209.49998632257638 414.64493583183014 222.99998669711033 325.1849333499187 237.99998711325912 318.8849331751362C252.99998752940792 312.5849330003537 258.99998769586745 403.97993553594836 273.99998811201624 409.6049356920042C288.9999885281651 415.22993584806 294.99998869462456 330.92243350909564 309.9999891107734 345.88493392420406C324.9999895269222 360.8474343393125 330.99998969338174 480.9749376720402 345.99999010953053 481.42493768452465C360.9999905256793 481.87493769700916 366.9999906921388 361.6574343617845 381.99999110828765 348.0449339841295C396.99999152443644 334.43243360647443 402.99999169089597 416.8724358936283 417.99999210704476 416.08493587178043C432.99999252319355 415.29743584993264 438.99999268965314 343.8149338667755 453.99999310580193 344.26493387925996C468.9999935219507 344.7149338917444 474.9999936884102 418.01993592546364 489.99999410455905 418.24493593170587C504.9999945207079 418.4699359379481 510.9999946871674 345.4574339123438 525.9999951033162 345.34493390922273C540.9999955194651 345.23243390610156 546.9999956859245 418.154935929209 561.9999961020733 417.70493591672454C576.9999965182221 417.2549359042401 590.499996892756 358.7099342800113 597.9999971008303 343.1849338492973 " transform="rotate(54, 400, 400)"></path><path d="M212.99998603820805 437.631324283499C220.08331956805608 413.8313236232096 232.8333199217826 329.3413212791821 246.99998698147868 323.39132111410976C261.16665404117475 317.4413209490374 266.8333208650532 403.7588233437657 280.9999879247493 409.0713234911517C295.16665498444536 414.38382363853776 300.83332180832383 334.76007142951585 314.99998886801995 348.8913218215627C329.166655927716 363.0225722136096 334.83332275159444 476.4763253611857 348.99998981129056 476.9013253729766C363.1666568709866 477.32632538476753 368.83332369486504 363.7875722348332 382.99999075456117 350.93132187815894C397.16665781425723 338.07507152148474 402.8333246381357 415.93507368157447 416.9999916978318 415.19132366094044C431.1666587575279 414.44757364030636 436.8333255814063 346.93632176732467 450.99999264110244 347.36132177911554C465.1666597007985 347.7863217909064 470.8333265246769 417.01882371164123 484.99999358437304 417.23132371753667C499.16666064406917 417.4438237234321 504.8333274679476 348.4875718103614 518.9999945276437 348.38132180741366C533.1666615873398 348.27507180446594 538.8333284112182 417.1463237151785 552.9999954709143 416.7213237033876C567.1666625306103 416.29632369159674 579.9166628843368 361.0038221576029 586.9999964141849 346.34132175081743 " transform="rotate(51, 400, 400)"></path><path d="M223.9999859619141 435.41771966543246C230.6666528135358 413.01771904398356 242.66665314645485 333.4977168378401 255.99998684969822 327.89771668247784C269.3333205529416 322.29771652711565 274.66665403423895 403.53771878097757 287.99998773748234 408.5377189196938C301.3333214407257 413.53771905841006 306.6666549220231 338.59771697933064 319.99998862526644 351.89771734831595C333.33332232850984 365.1977177173012 338.6666558098072 471.9777206797258 351.99998951305054 472.37772069082314C365.33332321629393 472.77772070192043 370.6666566975913 365.91771773727635 383.9999904008347 353.81771740158297C397.3333241040781 341.7177170658896 402.66665758537545 414.99771909891524 415.99999128861884 414.297719079495C429.3333249918621 413.59771906007467 434.66665847315954 350.05771729726837 447.9999921764029 350.45771730836566C461.3333258796463 350.85771731946295 466.6666593609436 416.01771912721335 479.99999306418704 416.217719132762C493.33332676743044 416.41771913831064 498.6666602487278 351.5177173377735 511.99999395197113 351.41771733499917C525.3333276552146 351.31771733222484 530.666661136512 416.13771913054256 543.9999948397553 415.7377191194452C557.3333285429986 415.3377191083479 569.3333288759177 363.297717664589 575.9999957275394 349.4977172817321 " transform="rotate(48, 400, 400)"></path><path d="M234.99998588562016 433.2041150473659C241.2499860590155 412.20411446475754 252.49998637112708 337.654112396498 264.99998671791775 332.4041122508459C277.4999870647084 327.1541121051938 282.49998720342467 403.3166142181894 294.99998755021534 408.0041143482359C307.499987897006 412.6916144782824 312.4999880357223 342.43536252914544 324.999988382513 354.90411287506913C337.49998872930365 367.3728632209928 342.49998886801995 467.4791159982659 354.9999892148106 467.8541160086696C367.4999895616013 468.22911601907333 372.49998970031754 368.0478632397195 384.9999900471082 356.704112925007C397.4999903938989 345.36036261029443 402.49999053261513 414.06036451625596 414.9999908794058 413.40411449804947C427.49999122619647 412.747864479843 432.4999913649127 353.179112827212 444.9999917117034 353.5541128376157C457.49999205849406 353.9291128480195 462.4999921972103 415.0166145427855 474.999992544001 415.20411454798733C487.4999928907917 415.3916145531892 492.49999302950795 354.5478628651856 504.9999933762987 354.4541128625847C517.4999937230893 354.36036285998375 522.4999938618056 415.1291145459066 534.9999942085963 414.7541145355029C547.4999945553868 414.3791145250991 558.7499948674986 365.59161317157515 564.9999950408939 352.6541128126468 " transform="rotate(45, 400, 400)"></path><path d="M245.9999858093262 430.9905104292993C251.83331930449518 411.3905098855315 262.33331959579937 341.8105079551559 273.9999865861373 336.910507819214C285.66665357647526 332.01050768327207 290.33332037261044 403.09550965540126 301.9999873629484 407.470509776778C313.6666543532864 411.8455098981547 318.3333211494216 346.2730080789602 329.9999881397595 357.9105084018223C341.66665513009747 369.54800872468445 346.33332192623266 462.980511316806 357.9999889165706 463.3305113265161C369.66665590690855 463.6805113362263 374.3333227030438 370.17800874216266 385.99998969338174 359.590508448431C397.6666566837197 349.0030081546993 402.3333234798548 413.12300993359673 413.9999904701928 412.51050991660395C425.6666574605308 411.8980098996112 430.33332425666595 356.3005083571557 441.99999124700395 356.65050836686584C453.66665823734184 357.00050837657597 458.3333250334771 414.0155099583576 469.999992023815 414.19050996321266C481.66665901415297 414.3655099680677 486.33332581028816 357.57800839259767 497.99999280062616 357.49050839017013C509.6666597909641 357.4030083877426 514.3333265870992 414.1205099612706 525.9999935774372 413.7705099515605C537.6666605677751 413.42050994185036 548.1666608590793 367.8855086785613 553.9999943542483 355.8105083435615 " transform="rotate(42, 400, 400)"></path><path d="M256.99998573303225 428.7769058112327C262.41665254997486 410.5769053063055 272.1666528204716 345.9669035138139 282.9999864543569 341.4169033875821C293.8333200882421 336.86690326135033 298.1666535417962 402.8744050926131 308.99998717568144 406.93690520532004C319.83332080956666 410.999405318027 324.1666542631208 350.110653628775 334.999987897006 360.91690392857555C345.8333215308913 371.7231542283761 350.1666549844454 458.48190663534604 360.99998861833063 458.80690664436264C371.8333222522159 459.1319066533792 376.16665570577 372.3081542446059 386.99998933965526 362.476903971855C397.8333229735405 352.6456536991042 402.1666564270946 412.18565535093745 412.9999900609798 411.6169053351585C423.83332369486504 411.04815531937953 428.1666571484192 359.42190388709935 438.9999907823044 359.7469038961159C449.83332441618967 360.0719039051325 454.16665786974374 413.01440537392966 464.999991503629 413.17690537843794C475.8333251375143 413.33940538294627 480.1666585910683 360.60815392000984 490.99999222495364 360.5269039177557C501.83332585883886 360.44565391550157 506.166659312393 413.1119053766347 516.9999929462782 412.7869053676181C527.8333265801634 412.46190535860154 537.5833268506601 370.1794041855474 542.9999936676028 358.9669038744762 " transform="rotate(39, 400, 400)"></path><path d="M267.9999856567383 426.56329737846886C272.99998579545456 409.7632969123822 281.9999860451438 350.12329525777454 291.99998632257643 345.9232951412529C301.9999866000089 341.7232950247312 305.99998671098194 402.6532967151277 315.9999869884145 406.4032968191649C325.99998726584704 410.1532969232021 329.99998737682006 353.9482953638925 339.99998765425255 363.92329564063147C349.9999879316851 373.89829591737043 353.9999880426581 453.9832981391889 363.99998832009067 454.28329814751186C373.9999885975232 454.5832981558349 377.9999887084962 374.4382959323518 387.9999889859287 365.36329568058176C397.9999892633613 356.2882954288117 401.9999893743343 411.24829695358096 411.99998965176684 410.72329693901577C421.9999899291994 410.1982969244505 425.9999900401724 362.5432956023458 435.9999903176049 362.84329561066875C445.99999059503745 363.1432956189917 449.99999070601046 412.0132969748046 459.999990983443 412.16329697896606C469.99999126087556 412.31329698312754 473.9999913718486 363.63829563272463 483.9999916492811 363.5632956306439C493.9999919267137 363.48829562856315 497.99999203768664 412.10329697730145 507.9999923151192 411.80329696897843C517.9999925925517 411.50329696065546 526.999992842241 372.4732958778363 531.9999929809572 362.1232955906936 " transform="rotate(36, 400, 400)"></path><path d="M279.0000008392334 424.34968894570505C283.58333429972333 408.9496885184589 291.8333345286052 354.2796870017353 301.000001449585 350.42968689492375C310.1666683705648 346.5796867881122 313.8333351389567 402.4321883376423 323.0000020599366 405.86968843300974C332.16666898091637 409.30718852837714 335.83333574930833 357.78593709901 345.00000267028815 366.92968735268744C354.166669591268 376.0734376063648 357.83333635965994 449.48468964303174 367.00000328063976 449.75968965066113C376.1666702016196 450.0346896582905 379.8333369700115 376.5684376200977 389.0000038909913 368.2496873893085C398.16667081197113 359.9309371585193 401.8333375803631 410.3109385562244 411.0000045013429 409.829688542873C420.16667142232274 409.34843852952156 423.8333381907147 365.6646873175922 433.00000511169446 365.9396873252216C442.1666720326743 366.214687332851 445.83333880106625 411.0121885756794 455.00000572204607 411.14968857949407C464.1666726430259 411.28718858330876 467.8333394114178 366.6684373454395 477.0000063323977 366.59968734353214C486.1666732533775 366.5309373416248 489.83334002176946 411.0946885779682 499.0000069427492 410.8196885703388C508.166673863729 410.54468856270944 516.4166740926108 374.7671875701252 521.0000075531008 365.27968730691106 " transform="rotate(33, 400, 400)"></path><path d="M290.00000076293946 422.13607288354666C294.16666754520304 408.1360724951411 301.66666775327747 358.4360711163014 310.00000131780456 354.9360710192C318.33333488233166 351.4360709220986 321.6666683081425 402.21107233076236 330.0000018726696 405.33607241746C338.33333543719675 408.46107250415764 341.6666688630076 361.623571204733 350.0000024275347 369.9360714353488C358.3333359920618 378.2485716659646 361.66666941787264 444.98607351748 370.0000029823998 445.2360735244158C378.3333365469269 445.4860735313516 381.66666997273774 378.69857167844907 390.00000353726483 371.1360714686407C398.3333371017919 363.5735712588324 401.66667052760283 409.3735725294734 410.0000040921299 408.93607251733573C418.333337656657 408.498572505198 421.6666710824679 368.7860714034441 430.00000464699497 369.0360714103799C438.3333382115221 369.2860714173157 441.6666716373329 410.01107254715976 450.00000520186006 410.1360725506276C458.3333387663872 410.2610725540955 461.666672192198 369.6985714287598 470.00000575672516 369.63607142702585C478.3333393212523 369.5735714252919 481.6666727470631 410.0860725492405 490.0000063115902 409.83607254230463C498.3333398761173 409.5860725353688 505.8333400841917 377.06107163301954 510.00000686645524 368.4360713937339 " transform="rotate(30, 400, 400)"></path><path d="M301.00000068664554 419.9224682654801C304.75000079068275 407.32246791591507 311.5000009779497 362.5924666749594 319.00000118602406 359.4424665875681C326.5000013940985 356.29246650017683 329.5000014773283 401.9899677679742 337.00000168540265 404.80246784600206C344.5000018934771 407.61496792403 347.5000019767068 365.4612167545478 355.00000218478124 372.942466962102C362.50000239285566 380.42371716965624 365.5000024760854 440.48746883602007 373.00000268415977 440.7124688422623C380.5000028922342 440.9374688485046 383.50000297546393 380.8287171808922 391.00000318353835 374.0224669920647C398.5000033916127 367.2162168032372 401.5000034748425 408.43621794681417 409.00000368291694 408.0424679358902C416.5000038909913 407.6487179249663 419.5000039742211 371.90746693338775 427.00000418229547 372.13246693963C434.5000043903699 372.3574669458722 437.50000447359963 409.0099679627318 445.00000468167406 409.12246796585293C452.5000048897485 409.23496796897405 455.5000049729782 372.7287169561719 463.00000518105264 372.67246695461137C470.50000538912707 372.6162169530508 473.5000054723568 409.07746796460447 481.0000056804312 408.85246795836224C488.5000058885056 408.62746795212 495.25000607577255 379.35496714000567 499.0000061798097 371.59246692464865 " transform="rotate(27, 400, 400)"></path><path d="M311.999992980957 417.7088674621108C315.3333264067679 406.5088671513863 321.3333265732274 366.74886604831454 327.9999934248491 363.94886597063345C334.6666602764708 361.14886589295236 337.3333270171195 401.7688670198833 343.99999386874117 404.26886708924144C350.66666072036287 406.76886715859956 353.33332746101155 369.2988661190599 359.99999431263325 375.9488663035525C366.66666116425495 382.59886648804513 369.3333279049036 435.9888679692574 375.99999475652527 436.1888679748061C382.66666160814697 436.38886798035475 385.33332834879565 382.9588664980327 391.99999520041735 376.908866330186C398.66666205203904 370.8588661623393 401.3333287926877 407.49886717885215 407.9999956443094 407.148867169142C414.66666249593106 406.7988671594319 417.33332923657974 375.0288662780287 423.99999608820144 375.22886628357736C430.66666293982314 375.428866289126 433.3333296804718 408.0088671930012 439.9999965320935 408.10886719577553C446.6666633837152 408.20886719854985 449.3333301243639 375.7588662982813 455.9999969759856 375.70886629689414C462.6666638276073 375.658866295507 465.333330568256 408.0688671946658 471.9999974198777 407.86886718911717C478.6666642714993 407.6688671835685 484.66666443795884 381.64886646168907 487.9999978637697 374.7488662702606 " transform="rotate(24, 400, 400)"></path><path d="M322.9999929046631 415.4952590293469C325.9166596522476 405.695258757463 331.1666597978997 370.9052577922753 336.99999329306866 368.45525772430426C342.8333267882376 366.0052576563333 345.1666601863052 401.54775864239787 350.99999368147417 403.7352587030863C356.8333271766432 405.9227587637746 359.1666605747108 373.13650785417735 364.9999940698798 378.9552580156084C370.83332756504876 384.7740081770395 373.1666609631163 431.49025947310025 378.9999944582853 431.6652594779553C384.8333279534543 431.84025948281044 387.1666613515219 385.0890081857786 392.99999484669087 379.7952580389128C398.83332834185984 374.5015078920469 401.1666617399274 406.5615087814956 406.99999523509643 406.25525877299924C412.8333287302654 405.9490087645029 415.166662128333 378.1502579932751 420.99999562350195 378.32525799813016C426.8333291186709 378.5002580029852 429.16666251673854 407.00775879387606 434.9999960119075 407.0952587963036C440.8333295070765 407.18275879873113 443.1666629051441 378.7890080109961 448.9999964003131 378.74525800978233C454.83332989548205 378.70150800856857 457.1666632935496 407.0602587953326 462.9999967887186 406.8852587904775C468.83333028388756 406.71025878562244 474.08333042953967 383.94275815397793 476.99999717712416 377.905257986478 " transform="rotate(21, 400, 400)"></path><path d="M333.99999282836916 413.28165059658306C336.4999928977273 404.88165036353973 340.9999930225719 375.0616495362359 345.9999931612882 372.96164947797513C350.99999330000446 370.86164941971424 352.999993355491 401.3266502649125 357.9999934942073 403.2016503169311C362.9999936329235 405.0766503689497 364.99999368841003 376.9741495892949 369.9999938271263 381.9616497276644C374.9999939658426 386.94914986603385 376.99999402132903 426.9916509769431 381.99999416004533 427.1416509811046C386.99999429876164 427.2916509852661 388.9999943542481 387.21914987352454 393.99999449296433 382.68164974763954C398.99999463168064 378.14414962175454 400.99999468716715 405.6241503841391 405.9999948258834 405.3616503768565C410.9999949645997 405.09915036957386 412.9999950200862 381.2716497085215 417.99999515880245 381.421649712683C422.9999952975187 381.5716497168445 424.99999535300526 406.0066503947509 429.9999954917215 406.08165039683166C434.99999563043775 406.1566503989124 436.9999956859243 381.81914972371095 441.99999582464056 381.7816497226706C446.9999959633568 381.7441497216302 448.9999960188433 406.05165039599933 453.9999961575596 405.90165039183785C458.99999629627587 405.75165038767636 463.4999964211205 386.2366498462668 465.9999964904786 381.06164970269543 " transform="rotate(18, 400, 400)"></path><path d="M344.99999656677244 411.06803834912193C347.08332995790425 404.0680381549192 350.83333006194147 379.2180374654993 354.99999684420504 377.4680374169486C359.16666362646856 375.718037368398 360.833330339374 401.1055380727298 364.99999712163753 402.6680381160786C369.1666639039011 404.23053815942745 370.8333306168065 380.81178750971515 374.9999973990701 384.96803762502304C379.16666418133366 389.12428774033094 380.83333089423905 422.49303866608864 384.99999767650263 422.61803866955654C389.16666445876615 422.74303867302444 390.8333311716716 389.34928774657317 394.9999979539351 385.568037641669C399.1666647361987 381.7867875367648 400.83333144910415 404.68678817208536 404.9999982313677 404.4680381660165C409.16666501363125 404.24928815994764 410.8333317265367 384.3930376090707 414.9999985088002 384.5180376125386C419.1666652910638 384.6430376160065 420.8333320039692 405.0055381809285 424.99999878623277 405.06803818266246C429.16666556849634 405.1305381843964 430.83333228140174 384.84928762172854 434.9999990636653 384.81803762086156C439.1666658459289 384.7867876199946 440.8333325588343 405.0430381819689 444.9999993410978 404.918038178501C449.1666661233614 404.7930381750331 452.9166662273986 388.5305377238584 454.99999961853035 384.2180376042156 " transform="rotate(15, 400, 400)"></path><path d="M355.9999964904785 408.85442991635813C357.66666320338396 403.2544297609959 360.6666632866137 383.37442920946 363.99999671242455 381.9744291706195C367.3333301382354 380.5744291317789 368.66666350855974 400.8844296952444 371.9999969343706 402.13442972992345C375.33333036018144 403.3844297646025 376.6666637305058 384.6494292448327 379.9999971563166 387.97442933707896C383.3333305821275 391.2994294293253 384.6666639524518 417.99443016993143 387.9999973782626 418.09443017270576C391.3333308040735 418.1944301754801 392.66666417439785 391.47942943431906 395.99999760020864 388.45442935039574C399.33333102601955 385.4294292664724 400.6666643963439 403.7494297747288 403.9999978221547 403.57442976987375C407.33333124796553 403.3994297650187 408.6666646182899 387.5144293243171 411.9999980441007 387.61442932709144C415.33333146991157 387.71442932986577 416.6666648402359 404.0044297818033 419.99999826604676 404.05442978319047C423.3333316918576 404.10442978457763 424.66666506218195 387.87942933444333 427.9999984879928 387.85442933374975C431.33333191380365 387.82942933305617 432.666665284128 404.03442978263564 435.99999870993884 403.9344297798613C439.33333213574963 403.834429777087 442.3333322189794 390.82442941614727 443.9999989318849 387.374429320433 " transform="rotate(12, 400, 400)"></path><path d="M366.9999964141846 406.64082148359427C368.2499964488636 402.4408213670726 370.499996511286 387.5308209534207 372.9999965806441 386.48082092429024C375.49999665000223 385.43082089515985 376.49999667774546 400.66332131775897 378.99999674710364 401.6008213437683C381.49999681646176 402.5383213697776 382.49999684420504 388.4870709799502 384.9999969135631 390.98082104913493C387.4999969829213 393.47457111831966 388.4999970106645 413.4958216737743 390.9999970800227 413.57082167585503C393.4999971493808 413.64582167793577 394.49999717712404 393.609571122065 396.99999724648217 391.3408210591225C399.49999731584035 389.07207099617995 400.4999973435836 402.81207137737226 402.9999974129417 402.68082137373096C405.4999974822998 402.54957137008967 406.4999975100431 390.6358210395635 408.9999975794012 390.71082104164424C411.49999764875935 390.785821043725 412.49999767650263 403.0033213826782 414.99999774586075 403.0408213837186C417.4999978152189 403.07832138475896 418.49999784296216 390.90957104715824 420.9999979123203 390.89082104663805C423.4999979816784 390.87207104611787 424.4999980094217 403.0258213833024 426.9999980787798 402.95082138122166C429.49999814813793 402.8758213791409 431.74999821056025 393.11832110843613 432.99999824523934 390.5308210366504 " transform="rotate(9, 400, 400)"></path><path d="M378.0000001525879 404.4272168655277C378.8333335090406 401.6272167878466 380.3333335506555 391.68721651207863 382.0000002635609 390.9872164926584C383.66666697646633 390.2872164732381 384.3333336616285 400.4422167549708 386.0000003745339 401.06721677231036C387.66666708743935 401.69221678964993 388.3333337726015 392.32471652976494 390.0000004855069 393.9872165758881C391.66666719841237 395.6497166220113 392.33333388357454 408.99721699231435 394.00000059647994 409.0472169937015C395.6666673093854 409.0972169950887 396.33333399454756 395.73971662450816 398.00000070745295 394.2272165825465C399.6666674203584 392.71471654058485 400.3333341055206 401.87471679471304 402.000000818426 401.7872167922855C403.6666675313314 401.699716789858 404.33333421649354 393.75721656950714 406.000000929399 393.8072165708943C407.66666764230445 393.85721657228146 408.33333432746656 402.0022167982503 410.000001040372 402.02721679894387C411.66666775327747 402.05221679963745 412.3333344384396 393.9397165745703 414.00000115134503 393.9272165742235C415.6666678642505 393.9147165738767 416.3333345494126 402.0172167986665 418.00000126231805 401.9672167972793C419.66666797522345 401.91721679589216 421.16666801683834 395.41221661542227 422.00000137329107 393.68721656756514 " transform="rotate(6, 400, 400)"></path><path d="M389.00000007629393 402.2136046180666C389.4166667545203 400.813604579226 390.1666667753277 395.84360444134205 391.00000013178044 395.4936044316319C391.83333348823317 395.14360442192174 392.1666668308143 400.2211045627881 393.00000018726695 400.5336045714579C393.8333335437197 400.84610458012764 394.16666688630073 396.1623544501852 395.00000024275346 396.9936044732468C395.8333335992062 397.8248544963084 396.1666669417873 404.49860468145994 397.00000029823997 404.5236046821535C397.8333336546927 404.5486046828471 398.16666699727375 397.86985449755684 399.0000003537265 397.113604476576C399.8333337101792 396.35735445559516 400.16666705276026 400.9373545826593 401.000000409213 400.8936045814455C401.8333337656657 400.84985458023175 402.16666710824677 396.8786044700563 403.0000004646995 396.9036044707499C403.8333338211522 396.92860447144346 404.1666671637333 401.0011045844279 405.000000520186 401.01360458477467C405.83333387663873 401.02610458512146 406.1666672192198 396.9698544725879 407.0000005756725 396.9636044724145C407.83333393212524 396.9573544722411 408.1666672747063 401.0086045846359 409.000000631159 400.98360458394234C409.8333339876117 400.95860458324876 410.5833340084192 397.70610449301387 411.00000068664554 396.84360446908534 " transform="rotate(3, 400, 400)"></path></g></svg>